<?xml version="1.0" encoding="UTF-8"?><svg id="Layer_1" xmlns="http://www.w3.org/2000/svg" viewBox="0 0 595.28 595.28"><defs><style>.cls-1{fill:#ff4e17;}</style></defs><rect class="cls-1" width="595.28" height="595.28"/><path d="M376.95,283.37h29.47v-8.4h-30.76c-5.06,0-9.16,4.1-9.16,9.16v8.8c0,5.06,4.1,9.16,9.16,9.16h21.17c.75,0,1.37.61,1.37,1.37v7.08c0,.75-.61,1.37-1.37,1.37h-30.04v8.4h31.33c5.06,0,9.16-4.1,9.16-9.16v-8.29c0-5.06-4.1-9.16-9.16-9.16h-21.17c-.75,0-1.37-.61-1.37-1.37v-7.59c0-.75.61-1.37,1.37-1.37Z"/><polygon points="322.68 274.97 313.6 274.97 313.6 320.3 354.37 320.3 354.37 311.9 322.68 311.9 322.68 274.97"/><path d="M207.79,274.97v45.33h9.08v-18.21h22.53c5.06,0,9.16-4.1,9.16-9.16v-8.8c0-5.06-4.1-9.16-9.16-9.16h-31.61ZM238.11,293.69h-21.25v-10.32h21.25c.75,0,1.36.61,1.36,1.36v7.59c0,.75-.61,1.36-1.36,1.36Z"/><path d="M260.69,284.13v27.02c0,5.06,4.1,9.16,9.16,9.16h22.45c5.06,0,9.16-4.1,9.16-9.16v-27.01c0-5.06-4.1-9.16-9.16-9.16h-22.45c-5.06,0-9.16,4.1-9.16,9.16ZM269.78,310.54v-25.8c0-.75.61-1.37,1.37-1.37h19.88c.75,0,1.37.61,1.37,1.37v25.8c0,.75-.61,1.37-1.37,1.37h-19.88c-.75,0-1.37-.61-1.37-1.37Z"/><path d="M513.09,283.37v-8.4h-31.61c-5.06,0-9.16,4.1-9.16,9.16v27.02c0,5.06,4.1,9.16,9.16,9.16h31.61v-8.4h-30.33c-.75,0-1.37-.61-1.37-1.37v-25.8c0-.75.61-1.37,1.37-1.37h30.33Z"/><polygon points="419.41 274.97 419.41 320.3 460.18 320.3 460.18 311.9 428.49 311.9 428.49 302.09 458.42 302.09 458.42 293.69 428.49 293.69 428.49 283.37 460.18 283.37 460.18 274.97 419.41 274.97"/><path d="M133.61,246.21c-28.35,0-51.42,23.07-51.42,51.42s23.07,51.42,51.42,51.42v-8.94c-11.69,0-22.29-4.75-29.97-12.41l6.18-6.18h0s6.32-6.32,6.32-6.32h0s-.19-.2-.19-.2c-4.55-4.64-7.05-10.76-7.05-17.27s2.57-12.8,7.24-17.47c9.63-9.63,25.3-9.63,34.94,0l6.32-6.33c-13.12-13.12-34.47-13.12-47.58,0-6.36,6.36-9.86,14.81-9.86,23.79,0,5.92,1.55,11.59,4.4,16.6l-6.39,6.39c-4.32-6.65-6.85-14.57-6.85-23.08,0-23.42,19.06-42.48,42.48-42.48s42.48,19.06,42.48,42.48c0,11.43-4.48,22.1-12.44,30.03l-11.4-11.4-1.14,1.14-5.18,5.19,17.21,17.21,1.83-1.41c1.78-1.37,3.45-2.84,5.01-4.39h0c9.63-9.6,15.05-22.53,15.05-36.36,0-28.36-23.07-51.42-51.42-51.42Z"/><polygon points="146.27 297.64 133.6 297.64 127.33 291.37 121.01 297.69 129.92 306.58 142.56 306.58 152.25 316.27 169.66 298.83 151.09 280.26 144.77 286.58 157.01 298.83 152.35 303.72 146.27 297.64"/></svg>