<?xml version="1.0" encoding="UTF-8"?><svg id="Layer_1" xmlns="http://www.w3.org/2000/svg" viewBox="0 0 595.28 595.28"><defs><style>.cls-1{fill:#fff;}.cls-2{fill:#ff4e17;}</style></defs><rect class="cls-2" width="595.28" height="595.28"/><path class="cls-1" d="M319.79,278.5h39.54v-11.27h-41.27c-6.79,0-12.29,5.5-12.29,12.29v11.81c0,6.79,5.5,12.29,12.29,12.29h28.4c1.01,0,1.83.82,1.83,1.83v9.5c0,1.01-.82,1.83-1.83,1.83h-40.31v11.27h42.03c6.79,0,12.29-5.5,12.29-12.29v-11.13c0-6.79-5.5-12.29-12.29-12.29h-28.4c-1.01,0-1.83-.82-1.83-1.83v-10.18c0-1.01.82-1.83,1.83-1.83Z"/><polygon class="cls-1" points="246.98 267.23 234.79 267.23 234.79 328.05 289.5 328.05 289.5 316.78 246.98 316.78 246.98 267.23"/><path class="cls-1" d="M92.83,267.23v60.82h12.18v-24.43h30.23c6.79,0,12.29-5.5,12.29-12.29v-11.81c0-6.79-5.5-12.29-12.29-12.29h-42.42ZM133.52,292.34h-28.5v-13.85h28.5c1.01,0,1.83.82,1.83,1.83v10.19c0,1.01-.82,1.83-1.83,1.83Z"/><path class="cls-1" d="M163.81,279.51v36.25c0,6.79,5.5,12.29,12.29,12.29h30.13c6.79,0,12.29-5.5,12.29-12.29v-36.25c0-6.79-5.5-12.29-12.29-12.29h-30.13c-6.79,0-12.29,5.5-12.29,12.29ZM175.99,314.95v-34.62c0-1.01.82-1.83,1.83-1.83h26.67c1.01,0,1.83.82,1.83,1.83v34.62c0,1.01-.82,1.83-1.83,1.83h-26.67c-1.01,0-1.83-.82-1.83-1.83Z"/><path class="cls-1" d="M502.45,278.5v-11.27h-42.42c-6.79,0-12.29,5.5-12.29,12.29v36.25c0,6.79,5.5,12.29,12.29,12.29h42.42v-11.27h-40.69c-1.01,0-1.83-.82-1.83-1.83v-34.62c0-1.01.82-1.83,1.83-1.83h40.69Z"/><polygon class="cls-1" points="376.76 267.23 376.76 328.05 431.47 328.05 431.47 316.78 388.95 316.78 388.95 303.62 429.1 303.62 429.1 292.34 388.95 292.34 388.95 278.5 431.47 278.5 431.47 267.23 376.76 267.23"/></svg>