<?xml version="1.0" encoding="UTF-8"?><svg id="Layer_1" xmlns="http://www.w3.org/2000/svg" viewBox="0 0 595.28 595.28"><path d="M297.64,154.03c-79.19,0-143.61,64.42-143.61,143.61s64.42,143.61,143.61,143.61v-24.98c-32.64,0-62.24-13.25-83.71-34.65l17.27-17.27h0s17.66-17.66,17.66-17.66l.03-.03-.53-.53c-12.69-12.96-19.7-30.05-19.7-48.22s7.18-35.75,20.21-48.78c26.89-26.91,70.66-26.91,97.57,0l17.66-17.66c-36.64-36.63-96.25-36.63-132.89,0-17.75,17.75-27.52,41.35-27.52,66.45,0,16.53,4.32,32.37,12.28,46.36l-17.83,17.84c-12.07-18.57-19.12-40.7-19.12-64.46,0-65.42,53.22-118.63,118.63-118.63s118.63,53.22,118.63,118.63c0,31.91-12.52,61.72-34.74,83.86l-31.84-31.83-3.17,3.18-14.48,14.49,48.07,48.05,5.11-3.94c4.96-3.82,9.63-7.92,13.99-12.26h0c26.91-26.8,42.03-62.91,42.03-101.55,0-79.19-64.42-143.61-143.61-143.61Z"/><polygon points="332.99 297.63 297.62 297.63 280.1 280.12 262.45 297.77 287.33 322.61 322.64 322.61 349.71 349.67 398.32 300.96 346.47 249.1 328.81 266.76 363 300.96 349.97 314.62 332.99 297.63"/></svg>